<?xml version="1.0" encoding="UTF-8"?>
<svg id="Layer_1" xmlns="http://www.w3.org/2000/svg" version="1.1" xmlns:xlink="http://www.w3.org/1999/xlink" viewBox="0 0 203.187 40.652">
  <!-- Generator: Adobe Illustrator 29.6.0, SVG Export Plug-In . SVG Version: 2.1.1 Build 207)  -->
  <defs>
    <style>
      .st0 {
        fill: url(#New_Gradient_Swatch_copy_41);
      }

      .st1 {
        fill: #0d3e62;
      }

      .st2 {
        fill: url(#New_Gradient_Swatch_copy_3);
      }

      .st3 {
        fill: #942f6c;
      }

      .st4 {
        fill: url(#New_Gradient_Swatch_copy_4);
      }

      .st5 {
        fill: #c3a239;
      }
    </style>
    <linearGradient id="New_Gradient_Swatch_copy_4" data-name="New Gradient Swatch copy 4" x1="116.853" y1="20.755" x2="136.053" y2="20.755" gradientUnits="userSpaceOnUse">
      <stop offset="0" stop-color="#d29625"/>
      <stop offset="0" stop-color="#d29625"/>
      <stop offset=".321" stop-color="#f5de77"/>
      <stop offset=".469" stop-color="#f7d968"/>
      <stop offset=".796" stop-color="#dda131"/>
      <stop offset="1" stop-color="#c68121"/>
    </linearGradient>
    <linearGradient id="New_Gradient_Swatch_copy_41" data-name="New Gradient Swatch copy 4" x1="138.521" y1="21.135" x2="158.073" y2="21.135" xlink:href="#New_Gradient_Swatch_copy_4"/>
    <linearGradient id="New_Gradient_Swatch_copy_3" data-name="New Gradient Swatch copy 3" x1="116.853" y1="20.945" x2="158.073" y2="20.945" gradientUnits="userSpaceOnUse">
      <stop offset="0" stop-color="#c3a239"/>
      <stop offset=".156" stop-color="#e9cd60"/>
      <stop offset=".383" stop-color="#dcc03a"/>
      <stop offset="1" stop-color="#ae8c1c"/>
    </linearGradient>
  </defs>
  <g>
    <rect class="st3" x="3.097" y="31.217" width="30.131" height="2.274"/>
    <path class="st3" d="M35.782,9.257l-8.91,7.654-1.426-1.808h0l-.776-.983-.553-.701h0l-5.72-7.25c-.12-.152-.349-.152-.469,0l-5.366,6.804h0l-3.109,3.939L.552,9.265c-.236-.203-.597,0-.547.307l3.009,18.587c.04.245.352.326.506.131l4.785-6.066h0s1.428-1.81,1.428-1.81l8.245,7.078c.106.091.263.091.37,0l8.244-7.079,1.431,1.813,4.862,6.16c.125.158.379.093.411-.107l3.027-18.718c.049-.303-.307-.503-.54-.303ZM6.49,20.667h0s-.715.906-.715.906l-.023.029h0l-1.3,1.648-1.387-8.561,4.854,4.167-1.429,1.811ZM18.162,24.393l-6.897-5.925,2.544-3.226h0l4.307-5.457c.023-.03.068-.03.091,0l3.786,4.797h0l3.065,3.885-6.897,5.925ZM31.872,23.25l-1.571-1.993h0l-.012-.015-.453-.575h0s-1.431-1.813-1.431-1.813l4.851-4.165-1.384,8.561Z"/>
  </g>
  <g>
    <g>
      <path class="st1" d="M47.866,5.662c.506-.245.89-.594,1.151-1.046.261-.452.392-.986.392-1.602s-.129-1.15-.387-1.611c-.258-.461-.638-.82-1.14-1.076-.502-.256-1.121-.384-1.859-.384h-3.602v9.604h1.74v-3.517h1.77l1.887,3.517h1.941l-2.081-3.81c.062-.025.128-.046.187-.075ZM44.161,1.397h1.594c.435,0,.789.063,1.064.19s.48.311.615.553c.134.242.201.534.201.875s-.067.628-.199.861-.337.409-.612.53-.628.181-1.06.181h-1.604V1.397Z"/>
      <path class="st1" d="M56.045,3.123c-.305-.297-.655-.516-1.05-.659-.395-.142-.815-.213-1.259-.213-.688,0-1.287.157-1.796.471-.509.314-.906.752-1.189,1.313-.283.561-.424,1.212-.424,1.953,0,.753.141,1.408.422,1.963.282.555.684.983,1.208,1.285.523.302,1.147.453,1.869.453.559,0,1.056-.085,1.491-.256.434-.17.791-.411,1.071-.722.28-.311.47-.676.57-1.095l-1.585-.178c-.075.203-.186.374-.333.511-.147.138-.321.242-.521.312s-.423.105-.671.105c-.369,0-.691-.079-.966-.237-.275-.158-.489-.386-.642-.685-.148-.288-.22-.635-.226-1.034h5.013v-.521c0-.631-.087-1.176-.262-1.634-.175-.458-.415-.836-.72-1.133ZM52.023,5.266c.017-.281.081-.545.21-.786.145-.27.349-.489.612-.656.262-.167.567-.251.914-.251.325,0,.61.073.856.22s.437.348.574.603c.138.255.208.545.211.87h-3.378Z"/>
      <path class="st1" d="M63.104,3.536h-.094c-.084-.175-.208-.362-.37-.56-.163-.198-.381-.369-.654-.511-.274-.142-.621-.213-1.043-.213-.553,0-1.055.141-1.506.424-.45.283-.808.697-1.071,1.243-.264.546-.397,1.214-.397,2.005,0,.785.132,1.437.397,1.958.264.52.621.911,1.069,1.172.449.261.949.391,1.503.391.413,0,.755-.063,1.029-.188s.494-.28.661-.464.294-.364.382-.539h.084v1.365c0,.531-.158.913-.473,1.146-.316.233-.715.35-1.196.35-.341,0-.623-.046-.846-.138s-.401-.208-.532-.347c-.132-.139-.232-.279-.3-.42l-1.529.37c.103.334.287.639.553.915.265.275.617.495,1.055.659.438.164.962.246,1.571.246.647,0,1.226-.1,1.735-.3s.911-.502,1.205-.905c.294-.404.441-.913.441-1.529V2.345h-1.674v1.191ZM62.907,7.095c-.131.328-.323.58-.577.755-.253.175-.56.263-.919.263-.372,0-.685-.091-.94-.274-.255-.183-.447-.439-.577-.769-.13-.33-.195-.715-.195-1.156,0-.435.064-.823.192-1.165.128-.342.319-.612.572-.809.254-.197.569-.295.947-.295.366,0,.674.095.926.284.251.189.442.454.572.795.129.341.195.738.195,1.191,0,.459-.066.853-.197,1.182Z"/>
      <path class="st1" d="M71.733,3.123c-.305-.297-.655-.516-1.05-.659-.395-.142-.815-.213-1.259-.213-.688,0-1.286.157-1.796.471-.509.314-.905.752-1.189,1.313-.283.561-.424,1.212-.424,1.953,0,.753.141,1.408.422,1.963.281.555.683.983,1.207,1.285.523.302,1.147.453,1.869.453.559,0,1.056-.085,1.491-.256s.791-.411,1.071-.722c.28-.311.47-.676.57-1.095l-1.585-.178c-.075.203-.186.374-.333.511-.147.138-.32.242-.521.312-.2.07-.423.105-.671.105-.369,0-.69-.079-.966-.237-.275-.158-.49-.386-.643-.685-.148-.288-.22-.635-.226-1.034h5.014v-.521c0-.631-.088-1.176-.263-1.634-.175-.458-.415-.836-.72-1.133ZM67.711,5.266c.017-.281.081-.545.21-.786.145-.27.349-.489.612-.656.263-.167.567-.251.915-.251.325,0,.61.073.855.22.246.147.437.348.574.603.138.255.208.545.211.87h-3.378Z"/>
      <path class="st1" d="M79.109,2.57c-.371-.213-.804-.319-1.301-.319-.538,0-.989.119-1.353.356-.364.238-.629.558-.795.961h-.084v-1.224h-1.623v7.203h1.698v-4.22c0-.347.064-.642.195-.886.129-.244.31-.431.539-.56.23-.13.493-.195.79-.195.437,0,.781.136,1.03.408.248.272.372.649.372,1.13v4.324h1.698v-4.586c.003-.575-.098-1.064-.303-1.468s-.493-.711-.863-.924Z"/>
      <path class="st1" d="M85.249,8.15c-.047.012-.115.027-.204.042-.089.016-.186.023-.293.023-.141,0-.269-.022-.385-.066-.116-.044-.208-.126-.279-.246s-.105-.294-.105-.523v-3.723h1.421v-1.313h-1.421V.619h-1.698v1.726h-1.022v1.313h1.022v4.005c-.003.45.095.825.293,1.125.198.3.468.521.809.664.341.142.724.207,1.149.195.24-.006.444-.028.611-.066.168-.037.297-.072.387-.103l-.286-1.327Z"/>
    </g>
    <g>
      <path class="st1" d="M45.216,17.584c.403-.261.866-.391,1.388-.391.294,0,.568.04.823.12.255.08.482.198.682.354.2.156.368.346.502.57.134.224.227.479.277.767h1.754c-.072-.535-.224-1.01-.457-1.428-.233-.417-.529-.771-.889-1.06-.359-.289-.769-.509-1.228-.659-.459-.15-.957-.225-1.491-.225-.838,0-1.588.196-2.251.586-.663.391-1.186.954-1.571,1.691-.385.736-.577,1.622-.577,2.657s.191,1.916.572,2.654.903,1.302,1.566,1.693c.663.391,1.416.586,2.261.586.572,0,1.092-.085,1.561-.256.469-.17.879-.408,1.228-.713.35-.305.634-.657.851-1.057.218-.4.359-.828.424-1.285l-1.754-.009c-.053.281-.149.531-.289.75-.139.219-.31.403-.511.553-.201.15-.428.264-.68.34-.252.077-.522.115-.809.115-.519,0-.979-.127-1.381-.382s-.717-.633-.947-1.135c-.23-.502-.344-1.12-.344-1.855,0-.722.114-1.334.342-1.836.228-.502.544-.883.947-1.144Z"/>
      <path class="st1" d="M56.938,18.534c-.515-.31-1.125-.464-1.829-.464s-1.313.155-1.829.464-.916.744-1.198,1.304c-.283.56-.424,1.211-.424,1.956s.141,1.394.424,1.951c.283.556.682.989,1.198,1.299s1.125.464,1.829.464,1.313-.155,1.829-.464c.516-.31.916-.743,1.198-1.299s.424-1.207.424-1.951-.142-1.396-.424-1.956-.682-.994-1.198-1.304ZM56.65,22.98c-.126.356-.318.64-.574.851-.256.211-.575.316-.956.316-.391,0-.715-.106-.973-.316-.258-.211-.45-.495-.577-.851-.126-.357-.19-.754-.19-1.191,0-.441.063-.84.19-1.198.127-.358.319-.643.577-.856.258-.213.582-.319.973-.319.382,0,.7.106.956.319.256.213.448.498.574.856.127.358.19.757.19,1.198,0,.438-.063.835-.19,1.191Z"/>
      <rect class="st1" x="59.798" y="15.762" width="1.698" height="9.604"/>
      <rect class="st1" x="63.042" y="15.762" width="1.698" height="9.604"/>
      <path class="st1" d="M71.695,18.942c-.305-.297-.655-.516-1.05-.659-.395-.142-.815-.213-1.259-.213-.688,0-1.286.157-1.796.471-.509.314-.905.752-1.189,1.313-.283.561-.424,1.212-.424,1.953,0,.753.141,1.408.422,1.963.281.555.683.983,1.207,1.285.523.302,1.147.453,1.869.453.559,0,1.056-.085,1.491-.256s.791-.411,1.071-.722c.28-.311.47-.676.57-1.095l-1.585-.178c-.075.203-.186.374-.333.511-.147.138-.32.242-.521.312-.2.07-.423.105-.671.105-.369,0-.69-.079-.966-.237-.275-.158-.49-.386-.643-.685-.148-.288-.22-.635-.226-1.034h5.014v-.521c0-.631-.088-1.176-.263-1.634-.175-.458-.415-.836-.72-1.133ZM67.672,21.085c.017-.281.081-.545.21-.786.145-.27.349-.489.612-.656.263-.167.567-.251.915-.251.325,0,.61.073.855.22.246.147.437.348.574.603.138.255.208.545.211.87h-3.378Z"/>
      <path class="st1" d="M78.754,19.354h-.094c-.084-.175-.208-.362-.37-.56-.163-.198-.381-.369-.654-.511-.274-.142-.621-.213-1.043-.213-.553,0-1.055.141-1.506.424-.45.283-.808.697-1.071,1.243-.264.546-.397,1.214-.397,2.005,0,.785.132,1.437.397,1.958.264.52.621.911,1.069,1.172.449.261.949.391,1.503.391.413,0,.755-.063,1.029-.188s.494-.28.661-.464.294-.364.382-.539h.084v1.365c0,.531-.158.913-.473,1.146-.316.233-.715.35-1.196.35-.341,0-.623-.046-.846-.138s-.401-.208-.532-.347c-.132-.139-.232-.279-.3-.42l-1.529.37c.103.334.287.639.553.915.265.275.617.495,1.055.659.438.164.962.246,1.571.246.647,0,1.226-.1,1.735-.3s.911-.502,1.205-.905c.294-.404.441-.913.441-1.529v-7.32h-1.674v1.191ZM78.557,22.914c-.131.328-.323.58-.577.755-.253.175-.56.263-.919.263-.372,0-.685-.091-.94-.274-.255-.183-.447-.439-.577-.769-.13-.33-.195-.715-.195-1.156,0-.435.064-.823.192-1.165.128-.342.319-.612.572-.809.254-.197.569-.295.947-.295.366,0,.674.095.926.284.251.189.442.454.572.795.129.341.195.738.195,1.191,0,.459-.066.853-.197,1.182Z"/>
      <path class="st1" d="M88.367,21.708c0-.631-.088-1.176-.263-1.634-.175-.458-.415-.836-.72-1.133-.305-.297-.655-.516-1.05-.659-.395-.142-.815-.213-1.259-.213-.688,0-1.286.157-1.796.471-.509.314-.905.752-1.189,1.313-.283.561-.424,1.212-.424,1.953,0,.753.141,1.408.422,1.963.281.555.683.983,1.207,1.285.523.302,1.147.453,1.869.453.559,0,1.056-.085,1.491-.256s.791-.411,1.071-.722c.28-.311.47-.676.57-1.095l-1.585-.178c-.075.203-.186.374-.333.511-.147.138-.32.242-.521.312-.2.07-.423.105-.671.105-.369,0-.69-.079-.966-.237-.275-.158-.49-.386-.643-.685-.148-.288-.22-.635-.226-1.034h5.014v-.521ZM83.361,21.085c.017-.281.081-.545.21-.786.145-.27.349-.489.612-.656.263-.167.567-.251.915-.251.325,0,.61.073.855.22.246.147.437.348.574.603.138.255.208.545.211.87h-3.378Z"/>
    </g>
    <g>
      <polygon class="st1" points="43.8 30.954 42.637 30.954 42.637 40.558 48.264 40.558 48.264 39.526 43.8 39.526 43.8 30.954"/>
      <path class="st1" d="M54.352,33.725c-.49-.31-1.059-.464-1.709-.464s-1.22.155-1.709.464c-.49.31-.871.744-1.145,1.304s-.411,1.215-.411,1.965c0,.744.137,1.394.411,1.951s.655.989,1.145,1.299c.489.31,1.059.464,1.709.464s1.22-.155,1.709-.464c.489-.31.87-.743,1.144-1.299s.411-1.207.411-1.951c0-.75-.137-1.405-.411-1.965s-.655-.994-1.144-1.304ZM54.571,38.335c-.154.413-.39.746-.708.999-.319.253-.725.38-1.219.38s-.901-.127-1.219-.38c-.319-.253-.555-.586-.708-.999s-.23-.86-.23-1.341.077-.93.23-1.346c.153-.416.389-.752.708-1.008.319-.256.725-.384,1.219-.384s.9.128,1.219.384c.319.257.555.593.708,1.008.153.416.229.865.229,1.346s-.076.929-.229,1.341Z"/>
      <path class="st1" d="M61.941,33.559c-.365-.199-.792-.298-1.28-.298-.544,0-.988.112-1.332.335s-.601.518-.769.884h-.093v-1.125h-1.069v7.203h1.107v-4.333c0-.419.08-.775.239-1.069.16-.294.377-.517.654-.671.276-.153.591-.23.945-.23.513,0,.916.159,1.21.476.293.317.441.759.441,1.325v4.502h1.107v-4.577c0-.613-.102-1.12-.305-1.522-.203-.402-.487-.702-.853-.9Z"/>
      <path class="st1" d="M69.841,34.499h-.093c-.082-.125-.195-.285-.34-.481s-.355-.37-.628-.525c-.274-.155-.645-.232-1.114-.232-.607,0-1.141.152-1.604.455s-.824.733-1.083,1.29-.389,1.213-.389,1.97c0,.763.129,1.423.389,1.981s.619.989,1.078,1.294c.46.305.99.457,1.59.457.463,0,.833-.077,1.111-.232s.493-.332.643-.53.265-.364.347-.495h.131v1.107h1.069v-9.604h-1.107v3.545ZM69.621,38.394c-.16.414-.392.738-.699.971-.307.233-.682.349-1.126.349-.463,0-.85-.123-1.161-.368-.311-.245-.545-.577-.703-.994-.158-.418-.237-.883-.237-1.395,0-.506.077-.964.232-1.372.155-.408.388-.731.699-.971.311-.239.701-.359,1.17-.359.45,0,.829.113,1.135.34.306.226.538.542.694.947.156.405.234.876.234,1.414,0,.544-.08,1.023-.239,1.437Z"/>
      <path class="st1" d="M77.561,33.725c-.49-.31-1.059-.464-1.709-.464s-1.22.155-1.709.464c-.49.31-.871.744-1.145,1.304s-.41,1.215-.41,1.965c0,.744.136,1.394.41,1.951s.655.989,1.145,1.299c.489.31,1.059.464,1.709.464s1.22-.155,1.709-.464c.489-.31.87-.743,1.144-1.299s.411-1.207.411-1.951c0-.75-.137-1.405-.411-1.965s-.655-.994-1.144-1.304ZM77.779,38.335c-.153.413-.39.746-.708.999-.319.253-.725.38-1.219.38s-.901-.127-1.219-.38c-.319-.253-.555-.586-.708-.999s-.23-.86-.23-1.341.077-.93.23-1.346c.153-.416.389-.752.708-1.008.319-.256.725-.384,1.219-.384s.901.128,1.219.384c.319.257.555.593.708,1.008.153.416.229.865.229,1.346s-.076.929-.229,1.341Z"/>
      <path class="st1" d="M86.003,34.459c-.203-.402-.487-.702-.853-.9s-.793-.298-1.28-.298c-.544,0-.988.112-1.332.335s-.6.518-.769.884h-.093v-1.125h-1.069v7.203h1.107v-4.333c0-.419.08-.775.239-1.069.16-.294.377-.517.654-.671.277-.153.592-.23.945-.23.513,0,.916.159,1.21.476s.441.759.441,1.325v4.502h1.106v-4.577c0-.613-.102-1.12-.305-1.522Z"/>
    </g>
  </g>
  <rect class="st5" x="102.556" y="-.056" width=".526" height="40.765"/>
  <g>
    <g>
      <path class="st4" d="M117.016,34.83v-3.634l9.64-9.45c.922-.931,1.69-1.758,2.305-2.482.615-.723,1.076-1.424,1.383-2.102.307-.678.461-1.401.461-2.169,0-.877-.199-1.629-.597-2.257s-.945-1.114-1.641-1.458c-.696-.343-1.487-.515-2.373-.515-.913,0-1.713.188-2.4.563-.687.375-1.218.906-1.593,1.593-.375.687-.563,1.505-.563,2.454h-4.786c0-1.763.402-3.295,1.207-4.597.804-1.301,1.914-2.309,3.329-3.023,1.414-.714,3.039-1.071,4.874-1.071,1.862,0,3.498.348,4.909,1.044s2.506,1.649,3.288,2.861,1.173,2.595,1.173,4.149c0,1.039-.199,2.061-.597,3.064-.398,1.003-1.096,2.115-2.095,3.335-.999,1.221-2.398,2.699-4.197,4.434l-4.786,4.868v.19h12.095v4.203h-19.037Z"/>
      <path class="st0" d="M148.108,35.209c-1.808,0-3.426-.341-4.855-1.024-1.428-.682-2.56-1.62-3.396-2.813-.836-1.193-1.281-2.558-1.336-4.095h4.881c.091,1.139.583,2.067,1.478,2.786s1.971,1.078,3.227,1.078c.985,0,1.862-.226,2.63-.678.768-.452,1.374-1.08,1.817-1.885.443-.804.66-1.722.651-2.753.009-1.048-.212-1.979-.664-2.793s-1.071-1.453-1.858-1.919c-.786-.466-1.69-.698-2.712-.698-.832-.009-1.65.144-2.454.461-.805.316-1.442.732-1.912,1.248l-4.542-.746,1.451-14.318h16.108v4.203h-11.946l-.8,7.363h.163c.515-.605,1.243-1.11,2.183-1.512.94-.402,1.971-.603,3.092-.603,1.681,0,3.181.396,4.501,1.186,1.32.791,2.359,1.878,3.119,3.261s1.139,2.965,1.139,4.746c0,1.835-.423,3.469-1.268,4.901-.845,1.433-2.016,2.558-3.512,3.377s-3.225,1.227-5.186,1.227Z"/>
    </g>
    <g>
      <path class="st2" d="M117.016,34.83v-3.634l9.64-9.45c.922-.931,1.69-1.758,2.305-2.482.615-.723,1.076-1.424,1.383-2.102.307-.678.461-1.401.461-2.169,0-.877-.199-1.629-.597-2.257s-.945-1.114-1.641-1.458c-.696-.343-1.487-.515-2.373-.515-.913,0-1.713.188-2.4.563-.687.375-1.218.906-1.593,1.593-.375.687-.563,1.505-.563,2.454h-4.786c0-1.763.402-3.295,1.207-4.597.804-1.301,1.914-2.309,3.329-3.023,1.414-.714,3.039-1.071,4.874-1.071,1.862,0,3.498.348,4.909,1.044s2.506,1.649,3.288,2.861,1.173,2.595,1.173,4.149c0,1.039-.199,2.061-.597,3.064-.398,1.003-1.096,2.115-2.095,3.335-.999,1.221-2.398,2.699-4.197,4.434l-4.786,4.868v.19h12.095v4.203h-19.037Z"/>
      <path class="st2" d="M148.108,35.209c-1.808,0-3.426-.341-4.855-1.024-1.428-.682-2.56-1.62-3.396-2.813-.836-1.193-1.281-2.558-1.336-4.095h4.881c.091,1.139.583,2.067,1.478,2.786s1.971,1.078,3.227,1.078c.985,0,1.862-.226,2.63-.678.768-.452,1.374-1.08,1.817-1.885.443-.804.66-1.722.651-2.753.009-1.048-.212-1.979-.664-2.793s-1.071-1.453-1.858-1.919c-.786-.466-1.69-.698-2.712-.698-.832-.009-1.65.144-2.454.461-.805.316-1.442.732-1.912,1.248l-4.542-.746,1.451-14.318h16.108v4.203h-11.946l-.8,7.363h.163c.515-.605,1.243-1.11,2.183-1.512.94-.402,1.971-.603,3.092-.603,1.681,0,3.181.396,4.501,1.186,1.32.791,2.359,1.878,3.119,3.261s1.139,2.965,1.139,4.746c0,1.835-.423,3.469-1.268,4.901-.845,1.433-2.016,2.558-3.512,3.377s-3.225,1.227-5.186,1.227Z"/>
    </g>
  </g>
  <g>
    <path class="st5" d="M168.416,13.757c-.137,0-.261-.011-.373-.032-.112-.022-.195-.044-.251-.069l.22-.749c.167.045.316.064.447.058.13-.006.246-.055.347-.147.101-.091.19-.242.267-.449l.113-.312-1.718-4.757h.978l1.19,3.644h.049l1.189-3.644h.981l-1.935,5.322c-.09.244-.204.452-.343.622s-.304.298-.495.384c-.191.086-.414.128-.666.128Z"/>
    <path class="st5" d="M174.366,12.091c-.462,0-.861-.099-1.194-.298s-.59-.479-.77-.841c-.18-.361-.271-.786-.271-1.273,0-.481.09-.905.271-1.272.18-.367.433-.653.758-.859.325-.206.706-.309,1.142-.309.265,0,.522.044.77.131s.472.225.669.413c.198.187.354.43.468.729.115.298.171.661.171,1.087v.324h-3.733v-.685h2.837c0-.241-.049-.454-.147-.64s-.235-.334-.411-.442c-.177-.108-.383-.162-.619-.162-.257,0-.481.063-.671.188-.19.125-.337.288-.44.489-.103.201-.154.418-.154.653v.535c0,.314.055.581.167.801.111.22.266.388.466.503.2.115.433.172.7.172.173,0,.331-.025.473-.075.143-.05.266-.125.37-.225.104-.1.183-.223.239-.37l.865.156c-.069.255-.193.477-.371.668-.179.191-.401.338-.669.443-.268.105-.573.157-.916.157Z"/>
    <path class="st5" d="M178.558,12.1c-.297,0-.566-.056-.807-.167-.241-.111-.43-.273-.57-.484-.14-.212-.209-.472-.209-.78,0-.265.05-.483.152-.654s.24-.307.413-.407.367-.175.581-.226c.214-.05.432-.089.654-.116.282-.033.51-.059.685-.081.175-.022.303-.056.382-.106.079-.049.119-.128.119-.238v-.022c0-.267-.075-.474-.225-.621s-.373-.22-.668-.22c-.308,0-.55.068-.726.203-.176.136-.298.286-.365.451l-.859-.195c.102-.285.251-.516.448-.693.197-.177.423-.305.68-.385s.527-.121.81-.121c.188,0,.387.022.597.066.211.044.409.124.593.24s.336.282.454.497.177.494.177.836v3.118h-.893v-.642h-.036c-.059.118-.148.234-.266.348-.118.115-.27.209-.455.285-.185.075-.408.113-.667.113ZM178.757,11.366c.253,0,.469-.05.65-.15.18-.1.318-.231.412-.392.095-.162.142-.336.142-.521v-.605c-.033.033-.096.063-.188.09-.093.028-.198.051-.316.07s-.233.037-.346.052c-.112.015-.206.028-.281.038-.177.023-.339.06-.484.113-.146.053-.262.129-.348.228-.087.099-.13.23-.13.392,0,.226.084.397.251.512s.38.172.639.172Z"/>
    <path class="st5" d="M181.885,11.996v-4.696h.884v.746h.049c.086-.253.237-.452.454-.598.217-.146.463-.219.738-.219.057,0,.125.002.203.006s.14.009.185.015v.874c-.037-.01-.102-.022-.195-.035-.094-.013-.188-.02-.282-.02-.216,0-.408.046-.576.136-.168.091-.301.216-.399.376-.098.16-.147.342-.147.546v2.867h-.914Z"/>
    <path class="st5" d="M188.504,8.447l-.829.147c-.035-.106-.089-.206-.163-.303-.074-.096-.174-.174-.301-.235-.126-.061-.284-.091-.474-.091-.259,0-.475.057-.648.173-.173.115-.26.263-.26.445,0,.157.058.283.174.379.116.096.304.174.562.235l.746.171c.432.1.754.254.966.462.212.208.318.478.318.81,0,.281-.081.531-.243.75-.162.219-.387.391-.676.515-.288.125-.622.187-1.001.187-.526,0-.955-.112-1.287-.338-.332-.225-.536-.545-.611-.961l.883-.135c.055.23.168.404.339.521s.395.175.669.175c.299,0,.539-.063.719-.188.179-.125.269-.278.269-.46,0-.147-.055-.27-.164-.37-.109-.1-.275-.175-.5-.226l-.795-.174c-.438-.1-.761-.259-.97-.477s-.313-.494-.313-.829c0-.277.077-.52.232-.728.155-.208.369-.37.642-.488.273-.117.586-.175.938-.175.508,0,.907.109,1.198.328.291.219.484.512.577.879Z"/>
    <path class="st5" d="M193.444,12.091c-.44,0-.824-.101-1.153-.303-.328-.202-.583-.484-.764-.846-.181-.363-.272-.787-.272-1.272s.091-.913.272-1.278c.181-.365.436-.648.764-.85.328-.202.712-.303,1.153-.303s.824.101,1.152.303c.328.202.583.485.764.85.181.365.272.791.272,1.278s-.091.909-.272,1.272c-.181.363-.436.645-.764.846-.328.202-.712.303-1.152.303ZM193.447,11.324c.285,0,.522-.075.709-.226.188-.151.327-.352.418-.602.09-.251.136-.526.136-.828,0-.3-.046-.575-.136-.827-.091-.252-.23-.454-.418-.607-.187-.153-.423-.23-.709-.23-.287,0-.525.077-.714.23s-.328.355-.419.607-.136.527-.136.827c0,.302.045.577.136.828s.23.451.419.602c.189.151.427.226.714.226Z"/>
    <path class="st5" d="M198.679,7.301v.734h-2.654v-.734h2.654ZM196.752,11.996v-5.239c0-.294.064-.538.193-.732.128-.194.298-.34.51-.437.212-.097.442-.145.691-.145.183,0,.34.015.471.044s.228.057.291.081l-.214.74c-.043-.012-.098-.027-.166-.044s-.149-.026-.244-.026c-.222,0-.38.055-.476.165-.095.11-.142.269-.142.477v5.118h-.914Z"/>
    <path class="st5" d="M169.816,23.39c-.454,0-.845-.103-1.172-.31-.327-.207-.578-.493-.754-.857-.175-.365-.263-.783-.263-1.254,0-.477.09-.898.269-1.264.179-.366.432-.652.758-.857.326-.206.71-.309,1.152-.309.357,0,.675.066.954.197.279.131.505.315.677.552.172.236.275.513.307.829h-.89c-.049-.22-.16-.41-.335-.569-.174-.159-.407-.239-.699-.239-.254,0-.477.067-.668.2s-.339.323-.445.569c-.106.246-.159.536-.159.87,0,.342.052.638.156.886s.251.441.442.578c.19.136.415.204.674.204.173,0,.331-.032.472-.096.142-.064.261-.157.358-.276.097-.12.164-.265.203-.435h.89c-.033.304-.131.575-.296.813s-.386.426-.662.563c-.276.136-.6.204-.97.204Z"/>
    <path class="st5" d="M173.433,20.507v2.788h-.914v-6.261h.902v2.33h.058c.11-.253.278-.453.504-.602.226-.149.522-.223.887-.223.322,0,.604.066.845.199.242.132.429.33.563.592s.2.588.2.98v2.986h-.914v-2.877c0-.344-.088-.612-.266-.802-.177-.191-.424-.286-.74-.286-.216,0-.409.046-.579.138-.17.091-.304.225-.401.402-.097.176-.145.389-.145.637Z"/>
    <path class="st5" d="M178.861,23.399c-.297,0-.566-.056-.807-.167-.241-.111-.43-.273-.57-.484-.14-.212-.209-.472-.209-.78,0-.265.05-.483.152-.654s.24-.307.413-.407.367-.175.581-.226c.214-.05.432-.089.654-.116.282-.033.51-.059.685-.081.175-.022.303-.056.382-.106.079-.049.119-.128.119-.238v-.022c0-.267-.075-.474-.225-.621s-.373-.22-.668-.22c-.308,0-.55.068-.726.203-.176.136-.298.286-.365.451l-.859-.195c.102-.285.251-.516.448-.693.197-.177.423-.305.68-.385s.527-.121.81-.121c.188,0,.387.022.597.066.211.044.409.124.593.24s.336.282.454.497.177.494.177.836v3.118h-.893v-.642h-.036c-.059.118-.148.234-.266.348-.118.115-.27.209-.455.285-.185.075-.408.113-.667.113ZM179.06,22.665c.253,0,.469-.05.65-.15.18-.1.318-.231.412-.392.095-.162.142-.336.142-.521v-.605c-.033.033-.096.063-.188.09-.093.028-.198.051-.316.07s-.233.037-.346.052c-.112.015-.206.028-.281.038-.177.023-.339.06-.484.113-.146.053-.262.129-.348.228-.087.099-.13.23-.13.392,0,.226.084.397.251.512s.38.172.639.172Z"/>
    <path class="st5" d="M183.102,20.507v2.788h-.914v-4.696h.877v.764h.058c.108-.249.277-.448.509-.6.231-.151.523-.226.875-.226.32,0,.601.067.841.2.241.133.427.332.56.595.132.263.199.588.199.975v2.986h-.914v-2.877c0-.34-.089-.607-.266-.799-.178-.193-.421-.289-.731-.289-.212,0-.4.046-.564.138-.164.091-.294.225-.388.402-.095.176-.142.389-.142.637Z"/>
    <path class="st5" d="M189.091,25.153c-.373,0-.693-.049-.961-.147-.268-.098-.487-.227-.656-.388-.169-.161-.296-.337-.379-.529l.785-.324c.055.09.129.185.222.286.093.101.219.187.379.259.16.071.366.107.619.107.346,0,.633-.084.859-.252.226-.168.339-.436.339-.802v-.923h-.058c-.055.1-.134.211-.237.333s-.244.229-.423.318c-.179.09-.412.135-.7.135-.371,0-.705-.087-1.001-.261-.296-.174-.531-.432-.703-.773-.172-.342-.258-.762-.258-1.261s.085-.927.255-1.284c.17-.357.404-.63.702-.821.297-.191.635-.286,1.012-.286.291,0,.526.048.706.145.179.097.319.21.42.338.101.129.179.242.234.339h.067v-.761h.895v4.8c0,.404-.094.735-.281.994-.188.259-.441.45-.76.575-.319.124-.678.186-1.078.186ZM189.082,22.466c.263,0,.485-.061.668-.185.182-.123.321-.301.416-.532.095-.231.142-.509.142-.833,0-.316-.047-.594-.141-.834-.094-.241-.231-.428-.412-.564s-.406-.203-.673-.203c-.275,0-.504.071-.688.212-.183.142-.322.334-.415.576-.092.242-.139.513-.139.813,0,.308.047.578.14.81.094.232.233.414.418.544.184.13.412.195.683.195Z"/>
    <path class="st5" d="M192.691,17.875c-.159,0-.295-.053-.408-.16-.113-.107-.17-.235-.17-.384,0-.151.057-.28.17-.387.113-.107.249-.161.408-.161s.295.054.408.161c.113.107.17.236.17.387,0,.149-.057.276-.17.384-.113.107-.249.16-.408.16ZM192.229,23.295v-4.696h.914v4.696h-.914Z"/>
    <path class="st5" d="M195.079,20.507v2.788h-.914v-4.696h.877v.764h.058c.108-.249.277-.448.509-.6.231-.151.523-.226.875-.226.32,0,.601.067.841.2.241.133.427.332.56.595.132.263.199.588.199.975v2.986h-.914v-2.877c0-.34-.089-.607-.266-.799-.178-.193-.421-.289-.731-.289-.212,0-.4.046-.564.138-.164.091-.294.225-.388.402-.095.176-.142.389-.142.637Z"/>
    <path class="st5" d="M201.069,25.153c-.373,0-.693-.049-.961-.147-.268-.098-.487-.227-.656-.388-.169-.161-.296-.337-.379-.529l.785-.324c.055.09.129.185.222.286.093.101.219.187.379.259.16.071.366.107.619.107.346,0,.633-.084.859-.252.226-.168.339-.436.339-.802v-.923h-.058c-.055.1-.134.211-.237.333s-.244.229-.423.318c-.179.09-.412.135-.7.135-.371,0-.705-.087-1.001-.261-.296-.174-.531-.432-.703-.773-.172-.342-.258-.762-.258-1.261s.085-.927.255-1.284c.17-.357.404-.63.702-.821.297-.191.635-.286,1.012-.286.291,0,.526.048.706.145.179.097.319.21.42.338.101.129.179.242.234.339h.067v-.761h.895v4.8c0,.404-.094.735-.281.994-.188.259-.441.45-.76.575-.319.124-.678.186-1.078.186ZM201.06,22.466c.263,0,.485-.061.668-.185.182-.123.321-.301.416-.532.095-.231.142-.509.142-.833,0-.316-.047-.594-.141-.834-.094-.241-.231-.428-.412-.564s-.406-.203-.673-.203c-.275,0-.504.071-.688.212-.183.142-.322.334-.415.576-.092.242-.139.513-.139.813,0,.308.047.578.14.81.094.232.233.414.418.544.184.13.412.195.683.195Z"/>
    <path class="st5" d="M168.752,28.333v6.261h-.914v-6.261h.914Z"/>
    <path class="st5" d="M170.236,29.173c-.159,0-.295-.053-.408-.16-.113-.107-.17-.235-.17-.384,0-.151.057-.28.17-.387.113-.107.249-.161.408-.161s.295.054.408.161c.113.107.17.236.17.387,0,.149-.057.276-.17.384-.113.107-.249.16-.408.16ZM169.774,34.594v-4.696h.914v4.696h-.914Z"/>
    <path class="st5" d="M175.728,29.898l-1.703,4.696h-.978l-1.706-4.696h.981l1.189,3.613h.049l1.186-3.613h.981Z"/>
    <path class="st5" d="M178.238,34.688c-.462,0-.861-.099-1.194-.298s-.59-.479-.77-.841c-.18-.361-.271-.786-.271-1.273,0-.481.09-.905.271-1.272.18-.367.433-.653.758-.859.325-.206.706-.309,1.142-.309.265,0,.522.044.77.131s.472.225.669.413c.198.187.354.43.468.729.115.298.171.661.171,1.087v.324h-3.733v-.685h2.837c0-.241-.049-.454-.147-.64s-.235-.334-.411-.442c-.177-.108-.383-.162-.619-.162-.257,0-.481.063-.671.188-.19.125-.337.288-.44.489-.103.201-.154.418-.154.653v.535c0,.314.055.581.167.801.111.22.266.388.466.503.2.115.433.172.7.172.173,0,.331-.025.473-.075.143-.05.266-.125.37-.225.104-.1.183-.223.239-.37l.865.156c-.069.255-.193.477-.371.668-.179.191-.401.338-.669.443-.268.105-.573.157-.916.157Z"/>
    <path class="st5" d="M184.583,31.044l-.829.147c-.035-.106-.089-.206-.163-.303-.074-.096-.174-.174-.301-.235-.126-.061-.284-.091-.474-.091-.259,0-.475.057-.648.173-.173.115-.26.263-.26.445,0,.157.058.283.174.379.116.096.304.174.562.235l.746.171c.432.1.754.254.966.462.212.208.318.478.318.81,0,.281-.081.531-.243.75-.162.219-.387.391-.676.515-.288.125-.622.187-1.001.187-.526,0-.955-.112-1.287-.338-.332-.225-.536-.545-.611-.961l.883-.135c.055.23.168.404.339.521s.395.175.669.175c.299,0,.539-.063.719-.188.179-.125.269-.278.269-.46,0-.147-.055-.27-.164-.37-.109-.1-.275-.175-.5-.226l-.795-.174c-.438-.1-.761-.259-.97-.477s-.313-.494-.313-.829c0-.277.077-.52.232-.728.155-.208.369-.37.642-.488.273-.117.586-.175.938-.175.508,0,.907.109,1.198.328.291.219.484.512.577.879Z"/>
  </g>
  <path class="st5" d="M156.395,16.046v-1.519h7.638v1.519h-7.638ZM159.452,19.109v-7.638h1.52v7.638h-1.52Z"/>
</svg>